<svg 
    xmlns="http://www.w3.org/2000/svg" 
    width="512" 
    height="512" 
    viewBox="0 0 512 512" 
    version="1.1">
    <path d="M 259 258.500 L 259 289 301 289 C 330.255 289, 343 289.326, 343 290.074 C 343 292.557, 337.771 306.446, 
    334.836 311.756 C 333.009 315.065, 327.743 321.382, 322.419 326.654 L 313.175 335.808 338.337 355.374 L 
    363.500 374.941 370.279 367.846 C 382.334 355.229, 395.088 333.722, 401.026 316 C 408.058 295.014, 411.153 268.094, 
    409.182 245.075 C 408.525 237.406, 407.717 230.426, 407.387 229.565 C 406.849 228.165, 399.020 228, 332.893 228 L 
    259 228 259 258.500" stroke="none" fill="#4280ef" fill-rule="evenodd"/>
    <path d="M 146.500 305.155 C 133.850 315.051, 122.399 323.961, 121.053 324.955 L 118.607 326.762 123.798 
    335.449 C 131.738 348.733, 138.889 357.665, 150.795 369.168 C 184.390 401.625, 229.664 416.974, 
    277.314 412.062 C 308.252 408.872, 337.980 396.824, 358.183 379.287 L 362.865 375.222 360.683 
    373.253 C 358.347 371.147, 315.260 337.876, 313.375 336.724 C 312.757 336.346, 308.216 338.054, 
    303.284 340.519 C 288.342 347.988, 281.589 349.379, 260 349.436 L 241.500 349.484 232 346.186 C 205.621 337.028, 
    186.036 319.331, 174.921 294.610 C 173.039 290.426, 171.050 287.038, 170.500 287.083 C 169.950 287.127, 
    159.150 295.260, 146.500 305.155" stroke="none" fill="#34a353" fill-rule="evenodd"/>
    <path d="M 115.116 193.532 C 101.364 226.291, 98.583 260.504, 106.932 294.206 C 110.395 308.186, 
    117.723 326.320, 119.616 325.594 C 120.345 325.314, 132.212 316.403, 145.985 305.793 C 168.598 288.373, 
    170.983 286.257, 170.552 284 C 170.290 282.625, 169.391 278.350, 168.555 274.500 C 165.870 262.137, 166.641 243.925, 
    170.487 228.863 C 171.121 226.377, 169.689 225.087, 145.506 206.363 C 131.397 195.438, 119.504 186.373, 
    119.079 186.217 C 118.653 186.062, 116.870 189.354, 115.116 193.532" stroke="none" fill="#f6b704" fill-rule="evenodd"/>
    <path d="" stroke="none" fill="#4483ec" fill-rule="evenodd"/><path d="M 243 99.695 C 214.871 102.707, 185.466 114.462, 
    163.396 131.516 C 155.690 137.471, 142.101 150.887, 135.852 158.711 C 131.116 164.639, 119 183.639, 119 185.136 C 119 
    185.959, 171 226.389, 171.370 225.854 C 171.505 225.660, 172.902 222.406, 174.474 218.624 C 180.220 204.800, 
    191.988 189.727, 204.346 180.361 C 211.894 174.641, 228.085 166.828, 237.500 164.363 C 248.375 161.516, 
    271.845 161.747, 282.500 164.807 C 293.081 167.846, 302.844 172.746, 311.916 179.571 L 319.333 185.151 341.666 162.834 
    C 353.950 150.559, 364 140.207, 364 139.829 C 364 139.450, 360.288 136.148, 355.750 132.491 C 328.514 110.539, 294.116 98.704, 
    258.872 99.160 C 252.067 99.248, 244.925 99.489, 243 99.695" stroke="none" fill="#e86625" fill-rule="evenodd"/>
</svg>